# xmcd CD database file
# Copyright (C) 1995-1998 Ti Kan
#
# Track frame offsets:
#	183
#	12723
#	26020
#	34860
#	45653
#	56400
#	66188
#	76148
#	85563
#	100273
#	113653
#	125200
#	134318
#	146343
#	159065
#	168808
#	180243
#	190700
#	201015
#	216325
#
# Disc length: 3015 seconds
#
# Revision: 2
# Processed by: cddbd v1.4b41PL1 Copyright (c) Steve Scherf et al.
# Submitted via: CDex 1.30Release
#
DISCID=030bc514
DTITLE=Patsy Cline - The Patsy Cline Story
DYEAR=1900
DGENRE=Country
TTITLE0=I Fall To Pieces
TTITLE1=She's Got You
TTITLE2=Walkin' After Midnight
TTITLE3=Levin' on your Mind
TTITLE4=South of the Border (Down Mexico Way)
TTITLE5=Foolin' Around
TTITLE6=Heartaches
TTITLE7=True Love
TTITLE8=The Wayward Wind
TTITLE9=So Wrong
TTITLE10=A Poor Man's Roses (Or A Rich Man's Gold)
TTITLE11=Back In Baby's Arms
TTITLE12=Crazy
TTITLE13=You're Stronger Than Me
TTITLE14=Seven Lonely Days
TTITLE15=Sweet Dreams
TTITLE16=Your Cheatin' Heart
TTITLE17=San Antonio Rose
TTITLE18=Why Can't He Be You
TTITLE19=I Love You So Much It Hurts
EXTD=YEAR:      ID3G:   2
EXTT0=
EXTT1=
EXTT2=
EXTT3=
EXTT4=
EXTT5=
EXTT6=
EXTT7=
EXTT8=
EXTT9=
EXTT10=
EXTT11=
EXTT12=
EXTT13=
EXTT14=
EXTT15=
EXTT16=
EXTT17=
EXTT18=
EXTT19=
PLAYORDER=
